Coordinates
nRows=443
nColumns=2
inDegrees=yes
endheader
time	ankle_angle_r	
12.2087	  5.157140	
12.2419	  5.150494	
12.2752	  5.144600	
12.3085	  5.144351	
12.3417	  5.152622	
12.375	  5.165398	
12.4083	  5.173913	
12.4415	  5.173870	
12.4748	  5.170019	
12.5081	  5.165728	
12.5413	  5.161766	
12.5746	  5.163294	
12.6079	  5.172151	
12.6411	  5.183074	
12.6744	  5.190491	
12.7077	  5.190533	
12.7409	  5.185229	
12.7742	  5.182621	
12.8075	  5.183363	
12.8407	  5.180122	
12.874	  5.171872	
12.9073	  5.162966	
12.9405	  5.156029	
12.9738	  5.151437	
13.0071	  5.144038	
13.0403	  5.127944	
13.0736	  5.103959	
13.1069	  5.076484	
13.1401	  5.055467	
13.1734	  5.052724	
13.2067	  5.063746	
13.2399	  5.070531	
13.2732	  5.066441	
13.3065	  5.062968	
13.3397	  5.072426	
13.373	  5.092436	
13.4062	  5.109059	
13.4395	  5.111052	
13.4728	  5.098873	
13.506	  5.086465	
13.5393	  5.091789	
13.5726	  5.116712	
13.6058	  5.144899	
13.6391	  5.161512	
13.6724	  5.164188	
13.7056	  5.161633	
13.7389	  5.166753	
13.7722	  5.182227	
13.8054	  5.198241	
13.8387	  5.208329	
13.872	  5.213539	
13.9052	  5.215911	
13.9385	  5.219396	
13.9718	  5.225191	
14.005	  5.228465	
14.0383	  5.229825	
14.0716	  5.233926	
14.1048	  5.236517	
14.1381	  5.231768	
14.1714	  5.222537	
14.2046	  5.212994	
14.2379	  5.204074	
14.2712	  5.196119	
14.3044	  5.188913	
14.3377	  5.181307	
14.371	  5.171850	
14.4042	  5.161484	
14.4375	  5.151830	
14.4708	  5.139771	
14.504	  5.123837	
14.5373	  5.111051	
14.5706	  5.107339	
14.6038	  5.109664	
14.6371	  5.109930	
14.6704	  5.100001	
14.7036	  5.080164	
14.7369	  5.061540	
14.7702	  5.050939	
14.8034	  5.045385	
14.8367	  5.042831	
14.87	  5.044299	
14.9032	  5.051008	
14.9365	  5.062646	
14.9698	  5.076045	
15.003	  5.088877	
15.0363	  5.098435	
15.0696	  5.100313	
15.1028	  5.098890	
15.1361	  5.106609	
15.1694	  5.125524	
15.2026	  5.144332	
15.2359	  5.153502	
15.2692	  5.152167	
15.3024	  5.147320	
15.3357	  5.148818	
15.369	  5.158173	
15.4022	  5.168474	
15.4355	  5.175442	
15.4687	  5.179720	
15.502	  5.183208	
15.5353	  5.186649	
15.5685	  5.186610	
15.6018	  5.180880	
15.6351	  5.174556	
15.6683	  5.171240	
15.7016	  5.169251	
15.7349	  5.168357	
15.7681	  5.167448	
15.8014	  5.163296	
15.8347	  5.155660	
15.8679	  5.144986	
15.9012	  5.131052	
15.9345	  5.114780	
15.9677	  5.094518	
16.001	  5.070587	
16.0343	  5.053291	
16.0675	  5.050286	
16.1008	  5.054216	
16.1341	  5.053870	
16.1673	  5.047014	
16.2006	  5.039147	
16.2339	  5.035742	
16.2671	  5.039138	
16.3004	  5.048056	
16.3337	  5.053750	
16.3669	  5.050217	
16.4002	  5.050244	
16.4335	  5.070757	
16.4667	  5.110248	
16.5	  5.151911	
16.5333	  5.176465	
16.5665	  5.178331	
16.5998	  5.172815	
16.6331	  5.174299	
16.6663	  5.179514	
16.6996	  5.182665	
16.7329	  5.186888	
16.7661	  5.193851	
16.7994	  5.200715	
16.8327	  5.207533	
16.8659	  5.215878	
16.8992	  5.225612	
16.9325	  5.234427	
16.9657	  5.238586	
16.999	  5.238031	
17.0323	  5.235670	
17.0655	  5.232441	
17.0988	  5.229478	
17.1321	  5.228650	
17.1653	  5.229524	
17.1986	  5.230644	
17.2319	  5.230846	
17.2651	  5.229937	
17.2984	  5.228670	
17.3317	  5.223564	
17.3649	  5.208392	
17.3982	  5.184128	
17.4315	  5.154988	
17.4647	  5.121110	
17.498	  5.090077	
17.5312	  5.076465	
17.5645	  5.078935	
17.5978	  5.080327	
17.631	  5.071356	
17.6643	  5.059014	
17.6976	  5.052659	
17.7308	  5.049227	
17.7641	  5.043058	
17.7974	  5.040431	
17.8306	  5.045931	
17.8639	  5.052333	
17.8972	  5.053315	
17.9304	  5.051158	
17.9637	  5.055143	
17.997	  5.074356	
18.0302	  5.105684	
18.0635	  5.135521	
18.0968	  5.154704	
18.13	  5.164761	
18.1633	  5.171950	
18.1966	  5.178594	
18.2298	  5.179507	
18.2631	  5.172344	
18.2964	  5.166511	
18.3296	  5.168336	
18.3629	  5.172288	
18.3962	  5.174408	
18.4294	  5.175452	
18.4627	  5.176921	
18.496	  5.181198	
18.5292	  5.186621	
18.5625	  5.189388	
18.5958	  5.189790	
18.629	  5.188392	
18.6623	  5.185455	
18.6956	  5.182699	
18.7288	  5.177034	
18.7621	  5.164811	
18.7954	  5.151151	
18.8286	  5.140237	
18.8619	  5.128871	
18.8952	  5.117721	
18.9284	  5.113331	
18.9617	  5.118416	
18.995	  5.126801	
19.0282	  5.125230	
19.0615	  5.104421	
19.0948	  5.071751	
19.128	  5.046820	
19.1613	  5.040390	
19.1946	  5.043524	
19.2278	  5.043685	
19.2611	  5.042239	
19.2944	  5.047412	
19.3276	  5.058784	
19.3609	  5.068040	
19.3942	  5.072343	
19.4274	  5.078828	
19.4607	  5.095225	
19.494	  5.121077	
19.5272	  5.147464	
19.5605	  5.164688	
19.5937	  5.171074	
19.627	  5.174315	
19.6603	  5.184516	
19.6935	  5.201784	
19.7268	  5.214999	
19.7601	  5.217893	
19.7933	  5.215282	
19.8266	  5.214663	
19.8599	  5.219709	
19.8931	  5.226107	
19.9264	  5.226601	
19.9597	  5.222567	
19.9929	  5.220321	
20.0262	  5.220646	
20.0595	  5.221597	
20.0927	  5.222708	
20.126	  5.224047	
20.1593	  5.227421	
20.1925	  5.231846	
20.2258	  5.230349	
20.2591	  5.219224	
20.2923	  5.199225	
20.3256	  5.172005	
20.3589	  5.150392	
20.3921	  5.150928	
20.4254	  5.166089	
20.4587	  5.171152	
20.4919	  5.156121	
20.5252	  5.131762	
20.5585	  5.112883	
20.5917	  5.102839	
20.625	  5.095147	
20.6583	  5.087373	
20.6915	  5.079233	
20.7248	  5.066745	
20.7581	  5.053747	
20.7913	  5.050757	
20.8246	  5.058982	
20.8579	  5.072652	
20.8911	  5.087393	
20.9244	  5.099440	
20.9577	  5.108582	
20.9909	  5.118878	
21.0242	  5.132531	
21.0575	  5.146675	
21.0907	  5.155929	
21.124	  5.159991	
21.1573	  5.161708	
21.1905	  5.159012	
21.2238	  5.153526	
21.2571	  5.153927	
21.2903	  5.160983	
21.3236	  5.168433	
21.3569	  5.175508	
21.3901	  5.183209	
21.4234	  5.189289	
21.4567	  5.192461	
21.4899	  5.192100	
21.5232	  5.188399	
21.5565	  5.184210	
21.5897	  5.179727	
21.623	  5.172844	
21.6562	  5.165830	
21.6895	  5.161111	
21.7228	  5.154804	
21.756	  5.140359	
21.7893	  5.116801	
21.8226	  5.095141	
21.8558	  5.090099	
21.8891	  5.098765	
21.9224	  5.101521	
21.9556	  5.088392	
21.9889	  5.067665	
22.0222	  5.052709	
22.0554	  5.052123	
22.0887	  5.063681	
22.122	  5.076612	
22.1552	  5.082412	
22.1885	  5.079648	
22.2218	  5.072260	
22.255	  5.061542	
22.2883	  5.043822	
22.3216	  5.021927	
22.3548	  5.005442	
22.3881	  5.000124	
22.4214	  5.006847	
22.4546	  5.021820	
22.4879	  5.036319	
22.5212	  5.044452	
22.5544	  5.045913	
22.5877	  5.043160	
22.621	  5.042668	
22.6542	  5.047991	
22.6875	  5.053033	
22.7208	  5.051784	
22.754	  5.045504	
22.7873	  5.042184	
22.8206	  5.054253	
22.8538	  5.080466	
22.8871	  5.096939	
22.9204	  5.087532	
22.9536	  5.065122	
22.9869	  5.050457	
23.0202	  5.050403	
23.0534	  5.059122	
23.0867	  5.070919	
23.12	  5.088365	
23.1532	  5.111956	
23.1865	  5.135244	
23.2198	  5.156925	
23.253	  5.176472	
23.2863	  5.186119	
23.3196	  5.185917	
23.3528	  5.186334	
23.3861	  5.190801	
23.4194	  5.196185	
23.4526	  5.201300	
23.4859	  5.205091	
23.5192	  5.208298	
23.5524	  5.211752	
23.5857	  5.212508	
23.619	  5.211769	
23.6522	  5.214493	
23.6855	  5.219954	
23.7187	  5.224834	
23.752	  5.227518	
23.7853	  5.226881	
23.8185	  5.223208	
23.8518	  5.215608	
23.8851	  5.203114	
23.9183	  5.191899	
23.9516	  5.187740	
23.9849	  5.185152	
24.0181	  5.174321	
24.0514	  5.150697	
24.0847	  5.120314	
24.1179	  5.098977	
24.1512	  5.096175	
24.1845	  5.104381	
24.2177	  5.109496	
24.251	  5.102688	
24.2843	  5.083815	
24.3175	  5.061800	
24.3508	  5.046470	
24.3841	  5.039520	
24.4173	  5.039446	
24.4506	  5.045941	
24.4839	  5.056724	
24.5171	  5.067385	
24.5504	  5.072602	
24.5837	  5.071777	
24.6169	  5.070426	
24.6502	  5.070644	
24.6835	  5.074297	
24.7167	  5.086699	
24.75	  5.103103	
24.7833	  5.114105	
24.8165	  5.123354	
24.8498	  5.137352	
24.8831	  5.152389	
24.9163	  5.161973	
24.9496	  5.163619	
24.9829	  5.161046	
25.0161	  5.161946	
25.0494	  5.167479	
25.0827	  5.171590	
25.1159	  5.171162	
25.1492	  5.167651	
25.1825	  5.164277	
25.2157	  5.163783	
25.249	  5.164424	
25.2823	  5.164550	
25.3155	  5.167786	
25.3488	  5.174395	
25.3821	  5.178360	
25.4153	  5.176618	
25.4486	  5.169428	
25.4819	  5.158275	
25.5151	  5.147033	
25.5484	  5.135879	
25.5817	  5.120279	
25.6149	  5.099673	
25.6482	  5.080561	
25.6815	  5.069559	
25.7147	  5.065229	
25.748	  5.062337	
25.7812	  5.061854	
25.8145	  5.065691	
25.8478	  5.068247	
25.881	  5.064826	
25.9143	  5.059015	
25.9476	  5.056338	
25.9808	  5.060131	
26.0141	  5.071165	
26.0474	  5.086244	
26.0806	  5.103014	
26.1139	  5.121560	
26.1472	  5.139778	
26.1804	  5.156130	
26.2137	  5.168103	
26.247	  5.169514	
26.2802	  5.162723	
26.3135	  5.158678	
26.3468	  5.162357	
26.38	  5.173791	
26.4133	  5.192283	
26.4466	  5.212357	
26.4798	  5.227143	
26.5131	  5.233768	
26.5464	  5.233350	
26.5796	  5.232200	
26.6129	  5.235542	
26.6462	  5.239325	
26.6794	  5.239641	
26.7127	  5.239714	
26.746	  5.240352	
26.7792	  5.237771	
26.8125	  5.229166	
26.8458	  5.216268	
26.879	  5.209457	
26.9123	  5.215339	
